{
	"asset":{
		"generator":"Khronos glTF Blender I/O v4.3.47",
		"version":"2.0"
	},
	"scene":0,
	"scenes":[
		{
			"name":"Scene",
			"nodes":[
				0
			]
		}
	],
	"nodes":[
		{
			"mesh":0,
			"name":"front_Material #482_0",
			"rotation":[
				-0.70710688829422,
				0,
				0,
				0.7071066498756409
			],
			"scale":[
				0.01854715310037136,
				0.01854715868830681,
				0.01854715868830681
			]
		}
	],
	"materials":[
		{
			"doubleSided":true,
			"name":"Material_482",
			"normalTexture":{
				"index":0
			},
			"pbrMetallicRoughness":{
				"baseColorTexture":{
					"index":1
				},
				"metallicRoughnessTexture":{
					"index":2
				}
			}
		}
	],
	"meshes":[
		{
			"name":"front_Material #482_0",
			"primitives":[
				{
					"attributes":{
						"POSITION":0,
						"NORMAL":1,
						"TEXCOORD_0":2
					},
					"indices":3,
					"material":0
				}
			]
		}
	],
	"textures":[
		{
			"sampler":0,
			"source":0
		},
		{
			"sampler":0,
			"source":1
		},
		{
			"sampler":0,
			"source":2
		}
	],
	"images":[
		{
			"mimeType":"image/png",
			"name":"Spaceship_normal",
			"uri":"Spaceship_normal.png"
		},
		{
			"mimeType":"image/png",
			"name":"Spaceship_albedo",
			"uri":"Spaceship_albedo.png"
		},
		{
			"mimeType":"image/png",
			"name":"Spaceship_metalness",
			"uri":"Spaceship_metalness.png"
		}
	],
	"accessors":[
		{
			"bufferView":0,
			"componentType":5126,
			"count":11412,
			"max":[
				0.2319398820400238,
				0.35226231813430786,
				0.18503527343273163
			],
			"min":[
				-0.2319398820400238,
				-0.4008782207965851,
				0.014006581157445908
			],
			"type":"VEC3"
		},
		{
			"bufferView":1,
			"componentType":5126,
			"count":11412,
			"type":"VEC3"
		},
		{
			"bufferView":2,
			"componentType":5126,
			"count":11412,
			"type":"VEC2"
		},
		{
			"bufferView":3,
			"componentType":5123,
			"count":37470,
			"type":"SCALAR"
		}
	],
	"bufferViews":[
		{
			"buffer":0,
			"byteLength":136944,
			"byteOffset":0,
			"target":34962
		},
		{
			"buffer":0,
			"byteLength":136944,
			"byteOffset":136944,
			"target":34962
		},
		{
			"buffer":0,
			"byteLength":91296,
			"byteOffset":273888,
			"target":34962
		},
		{
			"buffer":0,
			"byteLength":74940,
			"byteOffset":365184,
			"target":34963
		}
	],
	"samplers":[
		{
			"magFilter":9729,
			"minFilter":9987
		}
	],
	"buffers":[
		{
			"byteLength":440124,
			"uri":"Spaceship.bin"
		}
	]
}
